HIERARCHY
ROOT Hips
{
  OFFSET 40.5958 101.32 250.584
  CHANNELS 6 Xposition Yposition Zposition Zrotation Xrotation Yrotation
  JOINT RightUpLeg
  {
    OFFSET -8.9458 -8.66707 0.101652
    CHANNELS 3 Zrotation Xrotation Yrotation
    JOINT RightLeg
    {
      OFFSET 0 -44.4227 1.3727
      CHANNELS 3 Zrotation Xrotation Yrotation
      JOINT RightFoot
      {
        OFFSET 0.253549 -42.0924 -1.46059
        CHANNELS 3 Zrotation Xrotation Yrotation
        JOINT RightToes
        {
          OFFSET 0.04 -4.41509 8.4991
          CHANNELS 3 Zrotation Xrotation Yrotation
          End Site
          {
            OFFSET -0.08 -0.137448 9.77979
          }
        }
      }
    }
  }
  JOINT Spine
  {
    OFFSET 0 11.8905 0
    CHANNELS 3 Zrotation Xrotation Yrotation
    JOINT Spine1
    {
      OFFSET 0 25.6574 0.127663
      CHANNELS 3 Zrotation Xrotation Yrotation
      JOINT HEad
      {
        OFFSET 0 8.73416 0.011341
        CHANNELS 3 Zrotation Xrotation Yrotation
        End Site
        {
          OFFSET -0.29 12.7742 2.51395
        }
      }
      JOINT LeftShoulder1
      {
        OFFSET 8.99 -0.362252 -0.22
        CHANNELS 3 Zrotation Xrotation Yrotation
        JOINT LeftArm
        {
          OFFSET 10.2827 -0.00338 0.322123
          CHANNELS 3 Zrotation Xrotation Yrotation
          JOINT LeftForeArm
          {
            OFFSET 32.7669 0.099144 -1.42434
            CHANNELS 3 Zrotation Xrotation Yrotation
            JOINT LeftHand
            {
              OFFSET 27.5643 0.085362 1.02216
              CHANNELS 3 Zrotation Xrotation Yrotation
              End Site
              {
                OFFSET 16.7443 -0.6 1.50291
              }
            }
          }
        }
      }
      JOINT RightShoulder
      {
        OFFSET -8.99 -0.362252 -0.22
        CHANNELS 3 Zrotation Xrotation Yrotation
        JOINT RightArm
        {
          OFFSET -10.2827 -0.00338 0.322123
          CHANNELS 3 Zrotation Xrotation Yrotation
          JOINT RightForeArm
          {
            OFFSET -32.8971 0.099144 -1.42434
            CHANNELS 3 Zrotation Xrotation Yrotation
            JOINT RightHand
            {
              OFFSET -27.4921 0.085362 1.02216
              CHANNELS 3 Zrotation Xrotation Yrotation
              End Site
              {
                OFFSET -16.6312 -0.6 1.50291
              }
            }
          }
        }
      }
    }
  }
  JOINT LeftUpLeg
  {
    OFFSET 8.9458 -8.66707 0.101652
    CHANNELS 3 Zrotation Xrotation Yrotation
    JOINT LeftLeg
    {
      OFFSET 0 -44.4227 1.3727
      CHANNELS 3 Zrotation Xrotation Yrotation
      JOINT LeftFoot
      {
        OFFSET -0.253549 -42.0924 -1.46059
        CHANNELS 3 Zrotation Xrotation Yrotation
        JOINT LeftToes
        {
          OFFSET -0.04 -4.41509 8.4991
          CHANNELS 3 Zrotation Xrotation Yrotation
          End Site
          {
            OFFSET 0.08 -0.047448 9.77979
          }
        }
      }
    }
  }
}
MOTION
Frames:	10
Frame Time:	0.0166667
30.0261 98.2453 264.148 7.05621 3.60371 89.7139 -23.8822 -8.59375 -13.8616 -26.5692 44.7908 53.3131 12.5131 1.58524 -0.152624 0.0462048 0.000533403 0.662642 3.84106 17.8513 8.38074 0.0166236 -0.0147704 -0.00568926 -36.5382 20.3295 32.7758 -1.59028e-015 -2.18663e-015 -3.18055e-015 143.834 -71.3688 150.951 -82.1762 57.3379 -60.4414 4.62784 18.3671 7.18182 32.9078 -0.132452 9.19485 57.8424 -24.0155 64.8516 51.8705 54.7802 77.7972 -6.26106 26.8536 -1.7588 17.8646 -24.9574 7.37918 -4.32903 29.2722 14.1711 25.7549 -3.29505 1.63105 -1.18446e-009 1.5602e-007 -4.87131e-009 
28.459 97.8435 266.347 6.06065 3.72573 90.4781 -23.3757 -4.3192 -8.89378 -16.8684 40.3213 41.4208 10.6635 0.649644 -0.0737133 0.0462048 0.000533403 0.662642 3.42292 17.1604 9.15277 0.0166236 -0.0147704 -0.00568926 -34.4972 17.4733 33.1008 2.38542e-015 -1.39149e-015 -1.59028e-015 144.15 -71.6521 152.093 -82.7782 57.205 -59.995 5.03406 19.0679 0.921616 32.1003 -0.08036 8.20552 60.1796 -23.0876 66.4152 52.6838 54.7855 76.5233 -6.10099 26.7819 -1.99893 18.3777 -26.0126 7.3772 -4.18258 28.1783 11.7606 29.5245 -2.71075 1.73252 -1.18446e-009 1.5602e-007 -4.87131e-009 
27.0203 97.4684 268.524 5.1805 3.6798 91.1393 -22.6842 -0.258027 -3.16546 -9.11885 34.9474 29.418 10.5434 -0.299182 -0.0142834 0.0462048 0.000533403 0.662642 3.30896 16.5503 9.75273 0.0166236 -0.0147704 -0.00568926 -32.7198 14.8829 33.5231 -2.38542e-015 -7.95139e-016 -1.59028e-015 144.307 -71.8048 153.383 -83.7903 57.1568 -59.0838 5.16293 18.1029 4.30679 31.2596 0.219298 7.06154 62.3582 -22.0802 68.1322 53.1729 54.8131 75.345 -6.06424 26.4124 -2.1791 18.6711 -26.865 7.36101 -2.79898 27.3729 6.87791 31.9072 -2.31117 1.73432 -1.18446e-009 1.5602e-007 -4.87131e-009 
25.7513 97.1381 270.681 4.50913 3.53669 91.7108 -22.1382 3.26015 2.04069 -2.54786 31.1382 17.9467 7.0845 -1.24799 0.0565143 0.0462048 0.000533403 0.662642 3.40615 16.081 10.1728 0.0166236 -0.0147704 -0.00568926 -31.1891 12.6179 34.0648 -7.95139e-016 1.98785e-016 -0 144.141 -71.8613 154.622 -85.3289 57.2043 -57.8461 5.45087 18.2451 0.276162 30.5673 0.653986 5.94867 64.1363 -21.1346 69.6509 53.4468 54.8851 74.3516 -6.18692 26.003 -2.15857 18.6903 -27.4415 7.27846 -0.576591 26.7523 0.0978859 33.1945 -2.0674 1.68745 -1.18447e-009 1.5602e-007 -4.87131e-009 
24.6317 96.7756 272.741 4.05282 3.32181 92.2205 -22.1624 6.22562 6.92411 3.70799 27.6381 7.51679 6.76144 -1.82518 0.0890267 0.0462048 0.000533403 0.662642 3.67954 15.7422 10.3914 0.0166236 -0.0147704 -0.00568926 -29.9159 10.7499 34.7432 -7.95139e-016 2.18663e-015 1.59028e-015 144.004 -71.8952 156.046 -87.1539 57.2649 -56.2688 5.59511 17.7653 2.03451 29.8537 1.15707 4.86378 65.7575 -20.2082 70.9434 53.5662 54.9585 73.5008 -6.39999 25.5054 -2.11553 18.5458 -27.777 7.11221 1.2008 25.71 -5.6109 34.3724 -1.925 1.6251 -1.18445e-009 1.5602e-007 -4.87132e-009 
23.6772 96.45 274.625 3.80768 3.05344 92.6971 -22.2922 8.65202 11.3361 9.53621 24.3155 -1.24359 3.84435 -2.40336 0.0983429 0.0462048 0.000533403 0.662642 4.12348 15.4962 10.4017 0.0166236 -0.0147704 -0.00568926 -28.9 9.36022 35.5467 -7.95139e-016 1.59028e-015 1.59028e-015 144.055 -71.9264 157.659 -89.1748 57.2801 -54.5043 5.65519 18.0338 -0.695135 29.3066 1.5996 3.95124 67.0383 -19.3554 71.8097 53.5494 55.0173 72.7925 -6.69527 25.0302 -1.81666 18.2837 -27.7473 6.88848 2.6741 24.3878 -10.3171 35.2449 -1.80714 1.5677 -1.18446e-009 1.5602e-007 -4.87131e-009 
22.8029 96.2319 276.352 3.7486 2.7587 93.1499 -22.6933 10.5872 15.3658 14.407 20.8909 -7.68126 3.28564 -2.72019 0.158714 0.0462048 0.000533403 0.662642 4.6698 15.3209 10.2285 0.0166236 -0.0147704 -0.00568926 -28.041 8.40636 36.4148 -1.59028e-015 0 -0 144.502 -72.072 159.586 -91.0438 57.2124 -52.722 5.66713 17.9 0.318604 28.7182 2.1273 3.16885 68.249 -18.5744 72.4344 53.4063 55.0627 72.2016 -6.74684 24.4555 -1.82159 18.0204 -27.4425 6.66213 3.82525 23.0871 -13.9811 35.8185 -1.73539 1.51655 -1.18447e-009 1.5602e-007 -4.87131e-009 
21.9781 96.0509 277.87 3.82919 2.43814 93.5486 -22.3535 11.2164 18.1598 17.2423 17.7094 -11.8501 1.19545 -3.5187 0.261817 0.0462048 0.000533403 0.662642 5.27154 15.1734 9.94236 0.0166236 -0.0147704 -0.00568926 -27.3316 9.45533 37.1815 1.59028e-015 5.96354e-015 -3.18055e-015 145.318 -72.3426 161.755 -92.6369 57.0819 -51.0898 5.63324 18.2475 -1.30795 28.1351 2.69014 2.5969 69.2902 -17.9475 72.7842 53.1607 55.0862 71.687 -6.68845 24.0594 -1.75292 17.8806 -27.0817 6.55893 4.05694 22.8896 -14.9415 36.8536 -1.53277 1.45859 -1.18446e-009 1.5602e-007 -4.87131e-009 
21.2661 96.0361 279.188 4.00773 2.09767 93.8684 -21.5467 11.3643 19.8681 18.1249 16.2687 -13.2239 3.03731 -3.82205 0.382338 0.0462048 0.000533403 0.662642 5.8849 15.0322 9.59505 0.0166236 -0.0147704 -0.00568926 -27.0479 12.2014 37.7817 2.38542e-015 -2.18663e-015 -0 146.398 -72.7063 164.029 -93.7535 56.9065 -49.7771 5.68119 18.5725 -0.70499 27.4946 3.2556 2.14707 70.1997 -17.3765 72.9941 52.816 55.0647 71.2364 -6.40873 23.7353 -1.74863 17.9298 -26.73 6.65398 3.6918 23.2643 -13.7068 37.9807 -1.32196 1.43472 -1.18447e-009 1.5602e-007 -4.87131e-009 
20.7263 96.1939 280.316 4.25772 1.74933 94.1103 -20.0783 11.1233 20.4325 18.3036 17.7242 -13.2519 1.64048 -3.37536 0.205837 0.0462048 0.000533403 0.662642 6.47664 14.8879 9.21519 0.0166236 -0.0147704 -0.00568926 -27.4185 16.2818 38.1858 -2.38542e-015 -1.59028e-015 -0 147.538 -73.0657 166.208 -94.5055 56.7143 -48.7641 5.67898 18.9978 -1.63205 26.7319 3.81091 1.86129 71.0052 -16.8897 73.0881 52.3907 55.005 70.8592 -6.13177 23.3827 -1.6499 18.1789 -26.4813 6.96583 2.86164 24.0839 -10.7892 39.0404 -1.17211 1.4565 -1.18446e-009 1.5602e-007 -4.87131e-009 
